<?xml version="1.0" encoding="UTF-8" standalone="no"?>
<!-- Created with Inkscape (http://www.inkscape.org/) -->

<svg
   xmlns:dc="http://purl.org/dc/elements/1.1/"
   xmlns:cc="http://creativecommons.org/ns#"
   xmlns:rdf="http://www.w3.org/1999/02/22-rdf-syntax-ns#"
   xmlns:svg="http://www.w3.org/2000/svg"
   xmlns="http://www.w3.org/2000/svg"
   xmlns:sodipodi="http://sodipodi.sourceforge.net/DTD/sodipodi-0.dtd"
   xmlns:inkscape="http://www.inkscape.org/namespaces/inkscape"
   width="210mm"
   height="297mm"
   viewBox="0 0 210 297"
   version="1.1"
   id="svg8"
   inkscape:version="0.92.2 2405546, 2018-03-11"
   sodipodi:docname="pottery.svg">
  <defs
     id="defs2">
    <filter
       inkscape:collect="always"
       style="color-interpolation-filters:sRGB"
       id="filter6087"
       x="-0.1375504"
       width="1.2751008"
       y="-0.26939071"
       height="1.5387814">
      <feGaussianBlur
         inkscape:collect="always"
         stdDeviation="6.5346064"
         id="feGaussianBlur6089" />
    </filter>
  </defs>
  <sodipodi:namedview
     id="base"
     pagecolor="#ffffff"
     bordercolor="#666666"
     borderopacity="1.0"
     inkscape:pageopacity="0.0"
     inkscape:pageshadow="2"
     inkscape:zoom="2.0665161"
     inkscape:cx="132.96377"
     inkscape:cy="742.39291"
     inkscape:document-units="mm"
     inkscape:current-layer="layer1"
     showgrid="false"
     inkscape:window-width="1920"
     inkscape:window-height="1136"
     inkscape:window-x="0"
     inkscape:window-y="1227"
     inkscape:window-maximized="1" />
  <metadata
     id="metadata5">
    <rdf:RDF>
      <cc:Work
         rdf:about="">
        <dc:format>image/svg+xml</dc:format>
        <dc:type
           rdf:resource="http://purl.org/dc/dcmitype/StillImage" />
        <dc:title></dc:title>
      </cc:Work>
    </rdf:RDF>
  </metadata>
  <g
     inkscape:label="glaze"
     inkscape:groupmode="layer"
     id="layer1"
     style="display:inline">
    <path
       style="fill:#fff3e7;stroke:none;stroke-width:0.99999994px;stroke-linecap:butt;stroke-linejoin:miter;stroke-opacity:1;fill-opacity:1;fill-rule:nonzero;filter:url(#filter6087)"
       d="M 181.74609 384.57812 C 181.59151 384.58244 181.43381 384.59632 181.27344 384.62305 C 176.14142 385.47839 185.95588 401.27385 181.16602 403.83984 C 176.37614 406.40588 176.00573 386.17183 170.18945 388.22461 C 164.37316 390.27742 174.03534 410.55399 165.50195 413.57617 C 155.98779 417.33393 159.95929 388.17607 149.30469 390.52539 C 142.81841 392.7521 149.99255 416.75912 139.50195 417.03125 C 130.57017 417.26309 137.10217 391.94287 128.54883 391.42969 C 119.99547 390.91647 122.30678 416.45919 113.24023 415.26172 C 104.1737 414.06425 115.00924 389.50476 105.78711 388.76367 C 96.917288 388.05093 95.45562 410.02762 88.955078 406.77734 C 82.45454 403.5271 90.693196 389.23019 86.576172 387.02344 C 80.928465 383.99622 79.163745 393.10303 76.775391 395.28906 C 78.288378 412.20216 86.85531 442.66935 129 442.79297 C 181.80964 442.94784 191.43829 413.94485 190.75977 393.08984 C 188.22043 392.97569 186.11484 384.45622 181.74609 384.57812 z "
       transform="scale(0.26458333)"
       id="path4628" />
  </g>
  <g
     inkscape:groupmode="layer"
     id="layer2"
     inkscape:label="pot"
     style="display:inline">
    <path
       style="display:inline;fill:none;stroke:#000000;stroke-width:0.69999998;stroke-linecap:round;stroke-linejoin:round;stroke-miterlimit:4;stroke-dasharray:0.69999998,1.39999996;stroke-opacity:1;paint-order:markers fill stroke;stroke-dashoffset:0"
       d="m 25.060486,80.38734 c -1.430013,1.012892 1.781979,1.507853 3.038833,1.962332 1.710295,0.572445 3.899413,2.423655 2.768629,4.377315 -1.186588,1.390946 -3.576524,1.353972 -5.977273,2.504241 -2.239011,0.983644 -6.41382,4.69914 -7.416048,8.845912 -1.013741,4.27688 -0.961415,9.03106 1.018238,13.03271 1.771693,3.60254 5.565631,5.4862 9.22925,6.62074 1.253376,0.37534 2.962079,1.0421 2.629996,2.63929 0.06171,0.63507 1.373446,0.32847 0.921983,-0.48054 0.611658,-0.70857 -0.0037,-0.0624 3.884642,0.16265 3.942832,0.0905 3.882818,-1.24913 3.929054,0.20352 -0.303065,0.72952 1.333534,0.65143 0.92089,-0.10183 -0.213048,-1.7282 1.938189,-2.06649 3.155257,-2.56343 3.725082,-1.13607 7.448227,-3.33466 9.011922,-7.07408 1.688298,-4.01192 1.707592,-8.63386 0.58927,-12.797684 -1.385282,-4.883295 -5.298692,-7.574831 -9.840289,-9.248167 -1.778834,-0.602611 -4.916095,-2.296942 -3.185009,-4.335745 1.392614,-1.740773 3.758737,-2.131131 5.741247,-2.70434 0.877835,-1.164008 -1.008679,-1.033968 -1.719477,-0.995913 -2.663153,0.01745 -5.281088,-0.0052 -7.903273,-0.03542 -3.599281,-0.0039 -7.198561,-0.0077 -10.797842,-0.0116 z"
       id="path3713"
       inkscape:connector-curvature="0"
       sodipodi:nodetypes="cccccccccccccccccccccc" />
    <path
       style="display:inline;fill:none;stroke:#000000;stroke-width:0.26458332;stroke-linecap:butt;stroke-linejoin:miter;stroke-opacity:1;stroke-miterlimit:4;stroke-dasharray:0.26458332,0.52916663;stroke-dashoffset:0"
       d="m 18.964573,100.65606 c 1.086275,0.67892 -0.181046,3.07778 0.814706,3.93774 0.995752,0.85997 1.252636,-3.19865 3.127569,-2.19367 1.089296,0.58387 -1.090803,4.36623 0.629131,5.22619 1.719935,0.85997 2.106922,-4.95462 4.453729,-4.76604 2.440023,0.19608 -0.426965,6.69418 1.97189,7.01101 2.398858,0.31683 1.787055,-6.44144 4.050129,-6.30565 2.263074,0.13578 0.535054,6.83544 2.898255,6.7741 2.775638,-0.072 0.877321,-6.42411 2.593482,-7.01326 2.819029,-0.62159 1.768211,7.09322 4.285499,6.09898 2.257794,-0.79962 -0.298727,-6.16461 1.240166,-6.70775 1.538891,-0.54313 1.636958,4.81054 2.904278,4.13161 1.267319,-0.67892 -1.329176,-4.85805 0.02867,-5.08436 1.357844,-0.2263 1.915313,2.68627 2.708899,2.18387 0.85846,-0.53485 -0.343987,-2.36566 0.289676,-2.50145"
       id="path4559"
       inkscape:connector-curvature="0"
       sodipodi:nodetypes="ccscssssccscccc" />
  </g>
</svg>
